<svg width="60" height="61" viewBox="0 0 60 61" fill="none" xmlns="http://www.w3.org/2000/svg">
    <path d="M50 43.3462V18.3462C50 12.9262 40.8425 8.34619 30 8.34619C19.1575 8.34619 10 12.9262 10 18.3462V43.3462C10 48.7662 19.1575 53.3462 30 53.3462C40.8425 53.3462 50 48.7662 50 43.3462ZM30 13.3462C39.2275 13.3462 44.8275 17.1137 45 18.3312C44.8275 19.5787 39.2275 23.3462 30 23.3462C20.7725 23.3462 15.1725 19.5787 15 18.3612C15.1725 17.1137 20.7725 13.3462 30 13.3462ZM15 24.8637C18.6975 26.9812 24.0925 28.3462 30 28.3462C35.9075 28.3462 41.3025 26.9812 45 24.8637V30.8312C44.8275 32.0787 39.2275 35.8462 30 35.8462C20.7725 35.8462 15.1725 32.0787 15 30.8462V24.8637ZM15 43.3462V37.3637C18.6975 39.4812 24.0925 40.8462 30 40.8462C35.9075 40.8462 41.3025 39.4812 45 37.3637V43.3312C44.8275 44.5787 39.2275 48.3462 30 48.3462C20.7725 48.3462 15.1725 44.5787 15 43.3462Z" fill="#393939"/>
</svg>
