<svg width="48" height="48" viewBox="0 0 48 48" fill="none" xmlns="http://www.w3.org/2000/svg">
    <path fill-rule="evenodd" clip-rule="evenodd" d="M29.9074 0.542314C30.1106 0.713785 30.2717 0.917487 30.3817 1.14175C30.4917 1.36601 30.5483 1.60643 30.5483 1.84924C30.5483 2.09204 30.4917 2.33246 30.3817 2.55673C30.2717 2.78099 30.1106 2.98469 29.9074 3.15616L5.26995 24.0005L29.9074 44.8448C30.317 45.1914 30.5471 45.6615 30.5471 46.1517C30.5471 46.6419 30.317 47.112 29.9074 47.4587C29.4978 47.8053 28.9422 48 28.3629 48C27.7836 48 27.2281 47.8053 26.8185 47.4587L0.640887 25.3074C0.437735 25.1359 0.276556 24.9322 0.166582 24.708C0.0566084 24.4837 0 24.2433 0 24.0005C0 23.7577 0.0566084 23.5173 0.166582 23.293C0.276556 23.0687 0.437735 22.865 0.640887 22.6936L26.8185 0.542314C27.0211 0.370408 27.2618 0.23402 27.5268 0.140961C27.7919 0.0479015 28.076 0 28.3629 0C28.6499 0 28.934 0.0479015 29.199 0.140961C29.464 0.23402 29.7048 0.370408 29.9074 0.542314Z" fill="#1C1C1C"/>
    <path fill-rule="evenodd" clip-rule="evenodd" d="M47.3591 0.542314C47.5622 0.713785 47.7234 0.917487 47.8334 1.14175C47.9433 1.36601 48 1.60643 48 1.84924C48 2.09204 47.9433 2.33246 47.8334 2.55673C47.7234 2.78099 47.5622 2.98469 47.3591 3.15616L22.7216 24.0005L47.3591 44.8448C47.5619 45.0164 47.7228 45.2202 47.8325 45.4444C47.9423 45.6687 47.9988 45.909 47.9988 46.1517C47.9988 46.3945 47.9423 46.6348 47.8325 46.859C47.7228 47.0833 47.5619 47.287 47.3591 47.4587C47.1562 47.6303 46.9155 47.7664 46.6505 47.8593C46.3855 47.9522 46.1014 48 45.8146 48C45.5278 48 45.2437 47.9522 44.9787 47.8593C44.7137 47.7664 44.4729 47.6303 44.2701 47.4587L18.0925 25.3074C17.8894 25.1359 17.7282 24.9322 17.6182 24.708C17.5083 24.4837 17.4517 24.2433 17.4517 24.0005C17.4517 23.7577 17.5083 23.5173 17.6182 23.293C17.7282 23.0687 17.8894 22.865 18.0925 22.6936L44.2701 0.542314C44.4727 0.370408 44.7135 0.23402 44.9785 0.140961C45.2435 0.0479015 45.5276 0 45.8146 0C46.1015 0 46.3856 0.0479015 46.6507 0.140961C46.9157 0.23402 47.1564 0.370408 47.3591 0.542314Z" fill="#1C1C1C"/>
</svg>
