<svg width="60" height="61" viewBox="0 0 60 61" fill="none" xmlns="http://www.w3.org/2000/svg">
    <path d="M48.75 42.0961C47.4148 42.1031 46.1063 42.4704 44.9625 43.1593L37.8131 36.008C38.8318 34.4792 39.3753 32.6832 39.3753 30.8461C39.3753 29.0091 38.8318 27.2131 37.8131 25.6843L42.5888 20.9086C43.7968 21.4906 45.1719 21.6261 46.4703 21.2912C47.7688 20.9564 48.9068 20.1728 49.6828 19.0792C50.4588 17.9856 50.8227 16.6527 50.71 15.3165C50.5973 13.9803 50.0153 12.7272 49.0672 11.779C48.119 10.8308 46.8658 10.2489 45.5296 10.1362C44.1935 10.0235 42.8605 10.3874 41.767 11.1634C40.6734 11.9394 39.8898 13.0774 39.5549 14.3758C39.2201 15.6743 39.3556 17.0493 39.9375 18.2574L35.1619 23.033C33.6331 22.0144 31.8371 21.4709 30 21.4709C28.1629 21.4709 26.3669 22.0144 24.8381 23.033L17.6869 15.8818C18.3754 14.7386 18.7427 13.4307 18.75 12.0961C18.75 10.6128 18.3101 9.16274 17.486 7.92937C16.6619 6.696 15.4906 5.73471 14.1201 5.16705C12.7497 4.5994 11.2417 4.45087 9.78683 4.74026C8.33197 5.02965 6.9956 5.74395 5.9467 6.79285C4.89781 7.84174 4.1835 9.17811 3.89411 10.633C3.60472 12.0878 3.75325 13.5958 4.32091 14.9663C4.88856 16.3367 5.84986 17.5081 7.08323 18.3322C8.3166 19.1563 9.76664 19.5961 11.25 19.5961C12.5852 19.5892 13.8937 19.2219 15.0375 18.533L22.1869 25.6843C21.1683 27.2131 20.6247 29.0091 20.6247 30.8461C20.6247 32.6832 21.1683 34.4792 22.1869 36.008L15.0356 43.1593C13.8924 42.4708 12.5845 42.1035 11.25 42.0961C9.76664 42.0961 8.3166 42.536 7.08323 43.3601C5.84986 44.1842 4.88856 45.3556 4.32091 46.726C3.75325 48.0965 3.60472 49.6045 3.89411 51.0593C4.1835 52.5142 4.89781 53.8506 5.9467 54.8994C6.9956 55.9483 8.33197 56.6627 9.78683 56.952C11.2417 57.2414 12.7497 57.0929 14.1201 56.5252C15.4906 55.9576 16.6619 54.9963 17.486 53.7629C18.3101 52.5296 18.75 51.0795 18.75 49.5961C18.7431 48.261 18.3758 46.9524 17.6869 45.8086L24.8381 38.6593C25.8353 39.3239 26.9513 39.7899 28.125 40.0318V46.1912C26.874 46.6335 25.8196 47.5038 25.1482 48.6483C24.4768 49.7928 24.2316 51.1378 24.456 52.4456C24.6804 53.7535 25.3599 54.9398 26.3744 55.7951C27.3889 56.6504 28.6731 57.1194 30 57.1194C31.3269 57.1194 32.6111 56.6504 33.6256 55.7951C34.6401 54.9398 35.3196 53.7535 35.544 52.4456C35.7684 51.1378 35.5232 49.7928 34.8518 48.6483C34.1804 47.5038 33.126 46.6335 31.875 46.1912V40.0318C33.0487 39.7899 34.1647 39.3239 35.1619 38.6593L42.3131 45.8105C41.6246 46.9537 41.2573 48.2616 41.25 49.5961C41.25 51.0795 41.6899 52.5296 42.514 53.7629C43.3381 54.9963 44.5094 55.9576 45.8799 56.5252C47.2503 57.0929 48.7583 57.2414 50.2132 56.952C51.668 56.6627 53.0044 55.9483 54.0533 54.8994C55.1022 53.8506 55.8165 52.5142 56.1059 51.0593C56.3953 49.6045 56.2468 48.0965 55.6791 46.726C55.1114 45.3556 54.1502 44.1842 52.9168 43.3601C51.6834 42.536 50.2334 42.0961 48.75 42.0961ZM30 25.2211C31.1125 25.2211 32.2001 25.5511 33.1251 26.1691C34.0501 26.7872 34.7711 27.6657 35.1968 28.6936C35.6226 29.7214 35.734 30.8524 35.5169 31.9435C35.2999 33.0347 34.7642 34.037 33.9775 34.8236C33.1908 35.6103 32.1885 36.146 31.0974 36.3631C30.0062 36.5801 28.8752 36.4687 27.8474 36.043C26.8196 35.6172 25.9411 34.8963 25.323 33.9712C24.7049 33.0462 24.375 31.9587 24.375 30.8461C24.3765 29.3548 24.9696 27.9249 26.0242 26.8703C27.0787 25.8157 28.5086 25.2226 30 25.2211ZM7.5 12.0961C7.5 11.3545 7.71994 10.6294 8.13199 10.0128C8.54405 9.39608 9.12972 8.91543 9.81494 8.6316C10.5002 8.34777 11.2542 8.27351 11.9816 8.4182C12.709 8.5629 13.3772 8.92005 13.9017 9.4445C14.4261 9.96895 14.7833 10.6371 14.9279 11.3646C15.0726 12.092 14.9984 12.846 14.7146 13.5312C14.4307 14.2164 13.9501 14.8021 13.3334 15.2142C12.7167 15.6262 11.9917 15.8461 11.25 15.8461C10.2557 15.8452 9.3025 15.4497 8.59945 14.7467C7.8964 14.0437 7.501 13.0904 7.5 12.0961ZM11.25 53.3461C10.5083 53.3461 9.7833 53.1262 9.16662 52.7142C8.54993 52.3021 8.06928 51.7164 7.78545 51.0312C7.50163 50.346 7.42736 49.592 7.57206 48.8646C7.71675 48.1371 8.07391 47.4689 8.59835 46.9445C9.1228 46.4201 9.79099 46.0629 10.5184 45.9182C11.2458 45.7735 11.9998 45.8478 12.6851 46.1316C13.3703 46.4154 13.956 46.8961 14.368 47.5128C14.7801 48.1294 15 48.8545 15 49.5961C14.999 50.5904 14.6036 51.5437 13.9006 52.2467C13.1975 52.9498 12.2443 53.3452 11.25 53.3461ZM48.75 53.3461C48.0083 53.3461 47.2833 53.1262 46.6666 52.7142C46.0499 52.3021 45.5693 51.7164 45.2855 51.0312C45.0016 50.346 44.9274 49.592 45.0721 48.8646C45.2168 48.1371 45.5739 47.4689 46.0984 46.9445C46.6228 46.4201 47.291 46.0629 48.0184 45.9182C48.7458 45.7735 49.4998 45.8478 50.1851 46.1316C50.8703 46.4154 51.456 46.8961 51.868 47.5128C52.2801 48.1294 52.5 48.8545 52.5 49.5961C52.4985 50.5903 52.103 51.5432 51.4 52.2462C50.6971 52.9491 49.7441 53.3447 48.75 53.3461Z" fill="#393939"/>
</svg>
