<svg width="48" height="48" viewBox="0 0 48 48" fill="none" xmlns="http://www.w3.org/2000/svg">
    <path fill-rule="evenodd" clip-rule="evenodd" d="M0.640887 0.542314C0.843526 0.370408 1.08425 0.23402 1.34928 0.140961C1.61431 0.0479015 1.89843 0 2.18536 0C2.4723 0 2.75642 0.0479015 3.02145 0.140961C3.28647 0.23402 3.5272 0.370408 3.72984 0.542314L29.9074 22.6936C30.1106 22.865 30.2717 23.0687 30.3817 23.293C30.4917 23.5173 30.5483 23.7577 30.5483 24.0005C30.5483 24.2433 30.4917 24.4837 30.3817 24.708C30.2717 24.9322 30.1106 25.1359 29.9074 25.3074L3.72984 47.4587C3.32022 47.8053 2.76465 48 2.18536 48C1.60607 48 1.05051 47.8053 0.640887 47.4587C0.231266 47.112 0.00114422 46.6419 0.00114422 46.1517C0.00114422 45.6615 0.231266 45.1914 0.640887 44.8448L25.2783 24.0005L0.640887 3.15616C0.437735 2.98469 0.276556 2.78099 0.166582 2.55673C0.0566084 2.33246 0 2.09204 0 1.84924C0 1.60643 0.0566084 1.36601 0.166582 1.14175C0.276556 0.917487 0.437735 0.713785 0.640887 0.542314Z" fill="#1C1C1C"/>
    <path fill-rule="evenodd" clip-rule="evenodd" d="M18.0925 0.542314C18.2952 0.370408 18.5359 0.23402 18.8009 0.140961C19.066 0.0479015 19.3501 0 19.637 0C19.924 0 20.2081 0.0479015 20.4731 0.140961C20.7381 0.23402 20.9789 0.370408 21.1815 0.542314L47.3591 22.6936C47.5622 22.865 47.7234 23.0687 47.8334 23.293C47.9433 23.5173 48 23.7577 48 24.0005C48 24.2433 47.9433 24.4837 47.8334 24.708C47.7234 24.9322 47.5622 25.1359 47.3591 25.3074L21.1815 47.4587C20.7719 47.8053 20.2163 48 19.637 48C19.0577 48 18.5022 47.8053 18.0925 47.4587C17.6829 47.112 17.4528 46.6419 17.4528 46.1517C17.4528 45.6615 17.6829 45.1914 18.0925 44.8448L42.73 24.0005L18.0925 3.15616C17.8894 2.98469 17.7282 2.78099 17.6182 2.55673C17.5083 2.33246 17.4517 2.09204 17.4517 1.84924C17.4517 1.60643 17.5083 1.36601 17.6182 1.14175C17.7282 0.917487 17.8894 0.713785 18.0925 0.542314Z" fill="#1C1C1C"/>
</svg>
