<svg width="28" height="28" viewBox="0 0 28 28" fill="none" xmlns="http://www.w3.org/2000/svg">
    <path d="M22.75 22.75H5.25V5.25H14V3.5H5.25C4.78601 3.50046 4.34116 3.68499 4.01307 4.01307C3.68499 4.34116 3.50046 4.78601 3.5 5.25V22.75C3.50046 23.214 3.68499 23.6588 4.01307 23.9869C4.34116 24.315 4.78601 24.4995 5.25 24.5H22.75C23.214 24.4995 23.6588 24.315 23.9869 23.9869C24.315 23.6588 24.4995 23.214 24.5 22.75V14H22.75V22.75Z" fill="#00D8FF"/>
    <path d="M22.75 22.75H5.25V5.25H14V3.5H5.25C4.78601 3.50046 4.34116 3.68499 4.01307 4.01307C3.68499 4.34116 3.50046 4.78601 3.5 5.25V22.75C3.50046 23.214 3.68499 23.6588 4.01307 23.9869C4.34116 24.315 4.78601 24.4995 5.25 24.5H22.75C23.214 24.4995 23.6588 24.315 23.9869 23.9869C24.315 23.6588 24.4995 23.214 24.5 22.75V14H22.75V22.75Z" fill="#00D8FF"/>
    <path d="M22.75 5.25V1.75H21V5.25H17.5V7H21V10.5H22.75V7H26.25V5.25H22.75Z" fill="#00D8FF"/>
</svg>
