<svg width="60" height="60" viewBox="0 0 60 60" fill="none" xmlns="http://www.w3.org/2000/svg">
    <path d="M49.4625 19.0475C49.4009 18.8404 49.2872 18.6526 49.1322 18.502C48.9773 18.3514 48.7863 18.2431 48.5775 18.1875C48.3686 18.1306 48.1484 18.1298 47.939 18.1851C47.7297 18.2404 47.5386 18.3499 47.385 18.5025L40.845 24.895L36.06 23.9375L35.1075 19.17L41.72 12.7075C41.8748 12.5566 41.9879 12.3681 42.0481 12.1604C42.1082 11.9527 42.1135 11.733 42.0634 11.5226C42.0133 11.3123 41.9095 11.1186 41.7621 10.9603C41.6147 10.8021 41.4288 10.6849 41.2225 10.62C40.0206 10.2245 38.7652 10.0154 37.5 10C30.6075 10 25 15.6075 25 22.5C25 23.3075 25.095 24.125 25.295 25.025C23.89 26.1825 22.555 27.18 21.0425 28.31C18.88 29.925 16.43 31.7525 13.0875 34.575C12.1266 35.403 11.3539 36.4271 10.8214 37.5784C10.2888 38.7296 10.0088 39.9815 10 41.25C10 46.075 13.925 50 18.75 50C20.0201 49.996 21.2739 49.7142 22.4235 49.1743C23.5731 48.6345 24.5907 47.8497 25.405 46.875C27.6181 44.276 29.7394 41.6002 31.765 38.8525C32.87 37.375 33.845 36.075 34.9725 34.7025C35.8725 34.905 36.6925 35 37.5 35C44.3925 35 50 29.3925 50 22.5C49.9885 21.3293 49.8074 20.1663 49.4625 19.0475Z" fill="#393939"/>
</svg>
